PathFileType  4	(X/Y/Z) C:\Users\antoi\Documents\MyRepositories\mobilecap\ResultsAnalysis
DataRate	CameraRate	NumFrames	NumMarkers	Units	OrigDataRate	OrigDataStartFrame	OrigNumFrames
100.0	100.0	6	51	mm	100.0	229	261
Frame#	Time	r_knee			r_shank_antsup			r_ankle			r_calc			r_5meta			r_toe			L_knee			L_shank_antsup			L_ankle			L_calc			L_5meta			L_toe			r_sh2			r_sh3			r_sh4			L_sh2			L_sh3			r_thigh1			r_thigh2			r_thigh3			r_thigh4			r_thigh5			L_thigh1			L_thigh2			L_thigh3			L_thigh4			r.ASIS			r.PSIS			L.ASIS			L.PSIS			C7			R_Shoulder			L_Shoulder			R_Sternum			L_Sternum			R_humerus			R_elbow_med			R_elbow_lat			R_forearm			R_wrist_radius			R_wrist_ulna			L_humerus			L_elbow_med			L_elbow_lat			L_forearm			L_wrist_radius			L_wrist_ulna			R_HJC			L_HJC			R_HJC_reg			L_HJC_reg			
		X1	Y1	Z1	X2	Y2	Z2	X3	Y3	Z3	X4	Y4	Z4	X5	Y5	Z5	X6	Y6	Z6	X7	Y7	Z7	X8	Y8	Z8	X9	Y9	Z9	X10	Y10	Z10	X11	Y11	Z11	X12	Y12	Z12	X13	Y13	Z13	X14	Y14	Z14	X15	Y15	Z15	X16	Y16	Z16	X17	Y17	Z17	X18	Y18	Z18	X19	Y19	Z19	X20	Y20	Z20	X21	Y21	Z21	X22	Y22	Z22	X23	Y23	Z23	X24	Y24	Z24	X25	Y25	Z25	X26	Y26	Z26	X27	Y27	Z27	X28	Y28	Z28	X29	Y29	Z29	X30	Y30	Z30	X31	Y31	Z31	X32	Y32	Z32	X33	Y33	Z33	X34	Y34	Z34	X35	Y35	Z35	X36	Y36	Z36	X37	Y37	Z37	X38	Y38	Z38	X39	Y39	Z39	X40	Y40	Z40	X41	Y41	Z41	X42	Y42	Z42	X43	Y43	Z43	X44	Y44	Z44	X45	Y45	Z45	X46	Y46	Z46	X47	Y47	Z47	X48	Y48	Z48	X49	Y49	Z49	X50	Y50	Z50	X51	Y51	Z51	

229	2.28000000	-229.33426	794.37136	-391.15463	-190.24317	700.29089	-386.76472	-245.51849	359.97748	-415.31254	-320.02426	369.28587	-484.40450	-193.85697	218.76690	-393.50900	-111.73887	230.83603	-427.57188	-150.97276	855.50468	-810.06211	-149.44235	771.49226	-844.35750	-199.26986	434.31092	-827.33700	-279.90801	409.04412	-761.90050	-126.37047	317.34312	-874.60036	-52.13631	320.16491	-822.74045	-212.59952	591.27202	-363.74990	-261.02150	718.42469	-364.83814	-293.75080	607.30865	-364.46593	-237.62386	780.55600	-823.43228	-238.61330	658.56902	-833.52716	-200.91387	1119.24056	-367.14923	-181.59122	1011.83162	-372.90427	-281.31707	983.59658	-379.17591	-308.06494	1094.39611	-387.44364	-232.59058	975.90584	-351.95665	-148.22130	1150.68878	-769.02135	-103.21524	1018.23468	-782.95006	-251.32170	1117.51931	-792.60974	-211.31079	986.90270	-806.97959	-182.17710	1329.63746	-418.93361	-356.81546	1357.75051	-483.16586	-182.20409	1360.94646	-661.06259	-362.55114	1373.91872	-592.08353	-209.71407	1905.33366	-508.15193	-144.53638	1844.33314	-351.83424	-188.04606	1864.92469	-672.37630	-101.50663	1794.05193	-492.04255	-107.58573	1795.88860	-552.06549	-222.02229	1735.33464	-256.38783	-420.86765	1631.29424	-267.98418	-392.92305	1668.75344	-188.94663	-263.21682	1560.76221	-189.41840	-182.51373	1525.51887	-215.06389	-208.04109	1497.53315	-188.96417	-278.84760	1816.59538	-754.55457	-449.40348	1635.00829	-766.29164	-452.88147	1703.26383	-822.88245	-395.86578	1686.85809	-873.17028	-254.78931	1624.06728	-948.30232	-280.49962	1599.40859	-968.46707	-263.78985	1219.44328	-451.64426	-268.51941	1252.92453	-655.82448	-239.01756	1254.76700	-461.49228	-247.39921	1278.39447	-620.66551	
230	2.29000000	-229.29889	778.53815	-390.79038	-190.36228	684.21221	-386.66851	-247.34066	343.85238	-415.30860	-322.17197	354.68968	-483.34957	-196.80448	201.90987	-395.45906	-114.83207	213.33883	-430.49714	-150.46242	840.30562	-810.45598	-149.97008	756.22737	-844.52584	-205.22168	420.31928	-827.66997	-286.29352	396.17579	-761.98692	-134.04679	302.17585	-874.59419	-59.85905	303.86743	-822.59860	-213.27792	575.42870	-363.74546	-260.41029	702.98547	-364.74260	-294.27034	591.60111	-364.16248	-238.03883	766.83255	-823.98779	-241.05730	644.92391	-833.72997	-202.39190	1103.00122	-366.58814	-182.87703	995.64818	-372.19003	-282.48658	967.41769	-379.71802	-309.18429	1078.11550	-388.41307	-234.06633	959.78566	-351.88488	-148.14466	1135.49119	-768.97465	-102.84051	1003.11309	-782.87310	-251.08179	1102.16101	-792.71246	-210.85658	971.75294	-807.62081	-182.07360	1313.29993	-418.71449	-356.76563	1341.90162	-482.86014	-182.54128	1345.05278	-660.64826	-362.78640	1358.42506	-591.93460	-212.65145	1889.92965	-507.21239	-146.88233	1830.22901	-351.33334	-190.69946	1851.13050	-670.61661	-103.63097	1779.12242	-491.01179	-109.97238	1781.10996	-551.16011	-226.41002	1724.23626	-255.12453	-428.01303	1624.95906	-267.80734	-399.52138	1661.74016	-188.79778	-272.23041	1551.50231	-189.36326	-191.92041	1514.63445	-215.70349	-218.08065	1487.10471	-189.53480	-282.82766	1805.02301	-751.80926	-455.80436	1625.53158	-762.30778	-459.48175	1694.68833	-818.26479	-402.75407	1679.24684	-868.47199	-260.64152	1619.19580	-944.02656	-286.02819	1594.42994	-964.60193	-264.13513	1203.36806	-451.63768	-268.96042	1237.24910	-655.74936	-239.05244	1238.55202	-461.32019	-247.82850	1262.63699	-620.31301	
231	2.30000000	-229.16586	761.59263	-390.61163	-190.56908	666.95752	-386.64133	-249.61826	327.08597	-415.83158	-324.56297	339.39896	-483.28848	-200.73807	184.36238	-397.51451	-118.91375	194.65119	-432.97393	-149.70225	824.18580	-810.70850	-150.38647	740.09039	-844.60838	-211.19198	405.69043	-827.97014	-292.72751	383.29665	-761.91825	-142.31471	286.07756	-874.50992	-68.25251	286.25755	-822.40712	-214.11879	558.20000	-364.12165	-260.07544	686.22187	-364.60129	-294.92982	574.88204	-364.31105	-238.33107	752.40437	-824.38567	-243.49015	630.66562	-834.04131	-203.22111	1086.01466	-365.89855	-183.52692	978.59163	-371.45252	-283.04873	950.37290	-379.80983	-309.72802	1061.19665	-388.78901	-234.84283	942.86874	-351.49790	-147.91616	1119.44354	-768.91662	-102.32149	987.20780	-782.89243	-250.72324	1085.86534	-792.99160	-210.13008	955.66410	-808.22326	-181.83512	1295.95949	-418.45892	-356.71890	1325.05001	-482.60058	-182.96839	1328.28243	-660.35381	-363.06077	1341.97411	-591.69455	-215.64787	1873.47816	-506.37939	-149.37302	1814.83847	-350.78787	-193.33455	1836.08857	-669.02948	-105.80442	1763.51660	-490.49284	-112.31880	1765.29583	-550.43118	-230.83855	1711.98781	-254.01003	-435.12118	1617.50420	-267.81453	-406.11913	1653.51068	-188.96228	-280.83776	1540.96487	-190.11261	-201.28952	1502.74884	-216.40563	-228.04824	1475.58479	-190.42696	-286.82535	1792.19926	-749.01671	-462.46345	1614.93411	-757.93729	-466.43366	1684.76974	-813.25332	-409.64139	1670.53338	-863.75256	-266.66830	1612.59824	-939.18396	-291.72500	1587.95235	-960.14621	-264.39187	1186.29963	-451.70167	-269.43785	1220.66447	-655.72677	-239.01284	1221.26680	-461.17709	-248.25115	1245.91922	-620.08245	
232	2.31000000	-229.19199	743.67513	-390.57061	-190.89202	648.60890	-386.78135	-252.43977	309.64215	-416.99186	-327.33075	323.47393	-484.25474	-205.81689	166.17308	-399.28350	-124.29395	174.68832	-434.73533	-148.53708	807.39025	-810.97577	-150.62391	723.62826	-845.11619	-217.19253	390.42375	-827.94359	-299.19184	370.44008	-761.92216	-151.11142	269.01723	-874.21668	-77.16885	267.59857	-822.24755	-215.05944	539.67461	-364.84967	-260.43094	667.96128	-364.47008	-295.88136	557.10815	-365.10040	-238.40416	737.48902	-824.64142	-245.82686	615.87503	-834.08962	-203.28796	1068.29855	-365.32213	-183.49583	960.81329	-370.67872	-282.99526	932.52448	-379.43873	-309.65354	1043.44247	-388.81205	-234.88291	925.09546	-350.83713	-147.53235	1102.54345	-768.71962	-101.55670	970.53351	-782.96306	-250.22507	1068.64779	-793.19763	-209.04520	938.62171	-808.62308	-181.53262	1277.80999	-418.36472	-356.69505	1307.21449	-482.31816	-183.46624	1310.72770	-660.08038	-363.39277	1324.55552	-591.22572	-218.72200	1855.98049	-505.67262	-151.93785	1798.21128	-350.14201	-195.98552	1819.78691	-667.62928	-108.00085	1746.99443	-490.18036	-114.39039	1748.54960	-549.83215	-235.33008	1698.37823	-253.22892	-442.16236	1608.75861	-268.33332	-412.62846	1643.87211	-189.38014	-289.23439	1529.03441	-191.30441	-210.54040	1489.64016	-217.29470	-237.81805	1462.77583	-191.61696	-290.72443	1777.94949	-746.33595	-469.13262	1602.90596	-753.28482	-473.53026	1673.30305	-807.78874	-416.47305	1660.54180	-858.88994	-272.79355	1604.14661	-933.92112	-297.56998	1579.72030	-955.17226	-264.47283	1168.32984	-451.78916	-269.92818	1203.22651	-655.71384	-238.86050	1203.13177	-461.19326	-248.62107	1228.40334	-619.90746	
233	2.32000000	-229.54831	724.76855	-390.63525	-191.40552	629.17852	-387.04671	-256.18551	291.42387	-418.64401	-330.49541	306.95690	-486.15820	-212.24935	147.29016	-400.62754	-130.70479	153.81338	-436.04172	-146.87221	790.07864	-811.28169	-150.57343	707.09432	-845.66176	-223.21333	374.80907	-827.70521	-305.72780	357.39584	-761.89694	-160.42277	251.44673	-873.97235	-86.51091	248.24891	-822.11187	-216.36529	520.23528	-365.80460	-261.09461	648.96760	-364.68094	-297.23866	538.29718	-366.49203	-238.13094	722.16240	-824.50730	-248.11336	600.56681	-833.28888	-202.64912	1049.69288	-364.85412	-182.75512	942.32148	-369.69506	-282.45505	913.94755	-378.88944	-308.98296	1024.66867	-388.41773	-234.19681	906.39085	-350.06167	-147.04916	1084.84127	-768.45065	-100.45911	953.11857	-782.94473	-249.51897	1050.58275	-793.37776	-207.57406	920.80457	-809.17028	-181.25643	1258.90925	-418.34129	-356.67245	1288.39789	-481.88010	-184.13270	1292.36527	-659.81795	-363.86097	1306.09316	-590.65399	-221.78609	1837.36838	-505.10516	-154.44735	1780.35480	-349.52261	-198.66748	1802.24524	-666.42929	-110.15688	1729.25351	-489.59871	-116.26841	1730.85172	-549.08947	-239.90270	1683.23266	-252.79888	-448.87491	1598.34717	-269.43844	-418.93981	1632.63356	-190.11135	-297.70153	1515.72373	-192.50053	-219.66127	1474.96230	-218.54876	-247.42413	1448.50741	-193.02576	-294.50307	1762.17896	-743.91342	-475.57378	1589.19152	-748.37363	-480.44138	1660.21932	-801.96079	-423.34737	1648.88966	-853.72743	-279.07569	1593.57140	-928.06739	-303.61231	1569.34239	-949.66721	-264.40402	1149.49308	-451.80784	-270.46243	1184.86858	-655.63307	-238.62035	1184.22783	-461.15757	-249.09356	1210.00926	-619.64121	
234	2.33000000	-229.88387	704.78388	-390.76357	-192.24177	608.74340	-387.16711	-261.11505	272.22324	-420.40709	-333.89906	289.86181	-488.89455	-220.33663	127.31260	-402.18536	-138.13871	131.95004	-436.85155	-144.67397	772.12244	-811.30353	-150.14658	689.63632	-844.82107	-229.36221	359.08917	-827.48759	-312.45783	343.98691	-761.45824	-170.23283	234.08461	-874.00518	-96.33360	228.50541	-821.95601	-218.45096	500.02211	-366.69733	-261.84928	629.88231	-365.16975	-299.20552	518.70055	-368.42052	-237.38400	706.40277	-823.92611	-250.05131	584.86532	-832.16676	-201.42251	1030.21581	-364.39909	-181.36731	922.91840	-368.65066	-281.32494	894.56439	-378.35389	-307.83191	1004.84222	-387.40670	-232.75427	886.76601	-349.35013	-146.52030	1066.46654	-768.26651	-98.95468	935.11777	-782.82194	-248.57854	1031.70242	-793.83031	-205.73640	902.26535	-809.85145	-181.07929	1239.12824	-418.38572	-356.69316	1268.61185	-481.22098	-185.10179	1273.17144	-659.67217	-364.51472	1286.57866	-589.96773	-224.68549	1817.60027	-504.62357	-156.86580	1761.22529	-349.02453	-201.22038	1783.49489	-665.48226	-112.20252	1710.34355	-488.85990	-118.17489	1712.04051	-548.46915	-244.39903	1666.49751	-252.63350	-455.10067	1585.99451	-270.86496	-424.99638	1619.57119	-191.27230	-306.02464	1500.77398	-193.79693	-228.57787	1458.47600	-220.02102	-256.86070	1432.55249	-194.60855	-298.23140	1744.93931	-741.61931	-481.69402	1573.81698	-742.76383	-487.19044	1645.32309	-795.62119	-430.35542	1635.11157	-848.20474	-285.59403	1580.38614	-921.66493	-309.96611	1556.37722	-943.62806	-264.29430	1129.72445	-451.80663	-271.21200	1165.58545	-655.51925	-238.45972	1164.51357	-461.04962	-249.84584	1190.66781	-619.34808	
